<?xml version="1.0" encoding="utf-8"?>
<!-- Generator: Adobe Illustrator 27.8.1, SVG Export Plug-In . SVG Version: 6.00 Build 0)  -->
<svg version="1.1" id="Layer_1" xmlns="http://www.w3.org/2000/svg" xmlns:xlink="http://www.w3.org/1999/xlink" x="0px" y="0px"
	 viewBox="0 0 686 276.7" style="enable-background:new 0 0 686 276.7;" xml:space="preserve">
<style type="text/css">
	.st0{fill:#F48131;}
	.st1{fill:#FFFFFF;}
</style>
<g>
	<path class="st0" d="M253.36,90L253.36,90C233.13,23.08,162.47-14.78,95.54,5.45L0,34.33L73.26,276.7l95.54-28.88
		C235.73,227.59,273.58,156.93,253.36,90z M157.3,204.17H82.23V55.38h75.07V204.17z"/>
	<g>
		<path class="st1" d="M289.4,107.51V46.79h15.06v60.72H289.4z"/>
		<path class="st1" d="M356.19,107.51l-18.22-29.66c-2.1-3.38-4.2-7.71-5.72-11.09h-0.12c0.23,2.92,0.35,5.96,0.35,10.74v30.01
			h-14.48V46.79h20.2l17.63,28.96c2.33,3.62,4.44,7.47,6.31,11.56h0.11c-0.23-3.62-0.35-8.65-0.35-14.95l-0.12-25.58h14.6v60.72
			H356.19z"/>
		<path class="st1" d="M413.98,59.64v47.88h-15.07V59.64h-15.88V46.79h46.82v12.84H413.98z"/>
		<path class="st1" d="M436.5,107.51V46.79h37.37v11.8h-22.31v12.14h21.25v11.44h-21.25v13.31h22.31v12.03H436.5z"/>
		<path class="st1" d="M516.01,107.51l-14.95-23.71h-0.58v23.71h-15.06V46.79c4.9-0.23,14.13-0.35,21.83-0.35
			c14.95,0,23.82,5.72,23.82,17.52c0,9.34-5.96,15.18-14.71,17.28c1.17,1.63,2.8,4.09,4.56,6.66l13.43,19.62H516.01z M505.04,57.88
			c-1.64,0-3.16,0.12-4.56,0.23v15.53c1.52,0.24,3.39,0.24,5.02,0.24c5.84,0,9.58-3.39,9.58-8.41
			C515.08,60.69,511.22,57.88,505.04,57.88z"/>
		<path class="st1" d="M541.81,107.51V46.79h15.06v60.72H541.81z"/>
		<path class="st1" d="M595.75,108.56c-19.85,0-30.36-12.26-30.36-30.71c0-19.85,15.42-32.11,32.58-32.11
			c17.29,0,30.6,9.81,30.6,30.71C628.56,96.42,613.38,108.56,595.75,108.56z M596.92,58.94c-8.18,0-15.42,6.19-15.42,17.98
			c0,10.63,4.79,18.33,15.07,18.33c8.53,0,15.88-5.6,15.88-17.98C612.45,65.24,606.14,58.94,596.92,58.94z"/>
		<path class="st1" d="M667.67,107.51l-14.95-23.71h-0.58v23.71h-15.06V46.79c4.9-0.23,14.13-0.35,21.83-0.35
			c14.95,0,23.82,5.72,23.82,17.52c0,9.34-5.96,15.18-14.71,17.28c1.17,1.63,2.8,4.09,4.56,6.66L686,107.51H667.67z M656.69,57.88
			c-1.64,0-3.16,0.12-4.56,0.23v15.53c1.52,0.24,3.39,0.24,5.02,0.24c5.84,0,9.58-3.39,9.58-8.41
			C666.73,60.69,662.88,57.88,656.69,57.88z"/>
		<path class="st1" d="M309.72,193.05c-8.18,0-14.71-0.23-20.32-0.47v-60.6c5.49-0.11,16.23-0.35,23.7-0.35
			c19.73,0,32.81,8.41,32.81,29.66C345.92,183.35,330.15,193.05,309.72,193.05z M311.59,143.88c-2.22,0-5.02,0.12-7.12,0.35v35.85
			c1.4,0.23,4.09,0.35,6.77,0.35c10.86,0,18.69-6.19,18.69-18.45C329.92,150.08,323.73,143.88,311.59,143.88z"/>
		<path class="st1" d="M354.43,192.7v-60.72h37.37v11.8h-22.31v12.14h21.25v11.44h-21.25v13.31h22.31v12.03H354.43z"/>
		<path class="st1" d="M413.15,193.98c-3.85,0-8.53-0.58-11.91-1.4l0.58-13.31c3.5,1.4,8.06,2.22,12.84,2.22
			c5.02,0,9.22-2.34,9.22-6.89c0-9.23-24.41-4.09-24.41-23.94c0-11.91,8.99-19.85,25.69-19.85c3.27,0,7.71,0.47,11.09,0.93
			l-0.47,12.61c-3.27-0.93-7.71-1.52-11.21-1.52c-6.42,0-9.11,2.45-9.11,6.19c0,8.64,24.87,5.02,24.87,23.71
			C440.36,185.46,430.09,193.98,413.15,193.98z"/>
		<path class="st1" d="M450.28,192.7v-60.72h15.06v60.72H450.28z"/>
		<path class="st1" d="M509.48,192.7l-14.95-23.71h-0.58v23.71h-15.06v-60.72c4.9-0.23,14.13-0.35,21.83-0.35
			c14.95,0,23.82,5.72,23.82,17.52c0,9.34-5.96,15.18-14.71,17.28c1.17,1.63,2.8,4.09,4.56,6.66l13.43,19.62H509.48z M498.5,143.07
			c-1.64,0-3.16,0.12-4.56,0.23v15.53c1.52,0.23,3.39,0.23,5.02,0.23c5.84,0,9.58-3.38,9.58-8.4
			C508.54,145.87,504.69,143.07,498.5,143.07z"/>
		<path class="st1" d="M535.27,192.7v-60.72h37.37v11.8h-22.31v12.14h21.25v11.44h-21.25v13.31h22.31v12.03H535.27z"/>
		<path class="st1" d="M594,193.98c-3.85,0-8.53-0.58-11.91-1.4l0.58-13.31c3.5,1.4,8.06,2.22,12.84,2.22
			c5.02,0,9.22-2.34,9.22-6.89c0-9.23-24.41-4.09-24.41-23.94c0-11.91,8.99-19.85,25.69-19.85c3.27,0,7.71,0.47,11.09,0.93
			l-0.47,12.61c-3.27-0.93-7.71-1.52-11.21-1.52c-6.42,0-9.11,2.45-9.11,6.19c0,8.64,24.87,5.02,24.87,23.71
			C621.21,185.46,610.93,193.98,594,193.98z"/>
	</g>
</g>
</svg>
