<?xml version="1.0" encoding="UTF-8"?>
<svg id="Layer_1" data-name="Layer 1" xmlns="http://www.w3.org/2000/svg" viewBox="0 0 686 276.7">
  <defs>
    <style>
      .cls-1 {
        fill: #2e0c29;
      }

      .cls-1, .cls-2 {
        stroke-width: 0px;
      }

      .cls-2 {
        fill: #f48131;
      }
    </style>
  </defs>
  <path class="cls-2" d="m253.36,90h0C233.13,23.08,162.47-14.78,95.54,5.45L0,34.33l73.26,242.37,95.54-28.88c66.93-20.23,104.79-90.89,84.56-157.82Zm-96.06,114.17h-75.07V55.38h75.07v148.79Z"/>
  <g>
    <path class="cls-1" d="m289.4,107.51v-60.72h15.06v60.72h-15.06Z"/>
    <path class="cls-1" d="m356.19,107.51l-18.22-29.66c-2.1-3.38-4.2-7.71-5.72-11.09h-.12c.23,2.92.35,5.96.35,10.74v30.01h-14.48v-60.72h20.2l17.63,28.96c2.33,3.62,4.44,7.47,6.31,11.56h.11c-.23-3.62-.35-8.65-.35-14.95l-.12-25.58h14.6v60.72h-20.2Z"/>
    <path class="cls-1" d="m413.98,59.64v47.88h-15.07v-47.88h-15.88v-12.84h46.82v12.84h-15.88Z"/>
    <path class="cls-1" d="m436.5,107.51v-60.72h37.37v11.8h-22.31v12.14h21.25v11.44h-21.25v13.31h22.31v12.03h-37.37Z"/>
    <path class="cls-1" d="m516.01,107.51l-14.95-23.71h-.58v23.71h-15.06v-60.72c4.9-.23,14.13-.35,21.83-.35,14.95,0,23.82,5.72,23.82,17.52,0,9.34-5.96,15.18-14.71,17.28,1.17,1.63,2.8,4.09,4.56,6.66l13.43,19.62h-18.33Zm-10.98-49.63c-1.64,0-3.16.12-4.56.23v15.53c1.52.24,3.39.24,5.02.24,5.84,0,9.58-3.39,9.58-8.41s-3.85-7.59-10.04-7.59Z"/>
    <path class="cls-1" d="m541.81,107.51v-60.72h15.06v60.72h-15.06Z"/>
    <path class="cls-1" d="m595.75,108.56c-19.85,0-30.36-12.26-30.36-30.71,0-19.85,15.42-32.11,32.58-32.11s30.6,9.81,30.6,30.71-15.18,32.11-32.81,32.11Zm1.17-49.62c-8.18,0-15.42,6.19-15.42,17.98,0,10.63,4.79,18.33,15.07,18.33,8.53,0,15.88-5.6,15.88-17.98s-6.31-18.33-15.53-18.33Z"/>
    <path class="cls-1" d="m667.67,107.51l-14.95-23.71h-.58v23.71h-15.06v-60.72c4.9-.23,14.13-.35,21.83-.35,14.95,0,23.82,5.72,23.82,17.52,0,9.34-5.96,15.18-14.71,17.28,1.17,1.63,2.8,4.09,4.56,6.66l13.43,19.62h-18.33Zm-10.98-49.63c-1.64,0-3.16.12-4.56.23v15.53c1.52.24,3.39.24,5.02.24,5.84,0,9.58-3.39,9.58-8.41s-3.85-7.59-10.04-7.59Z"/>
    <path class="cls-1" d="m309.72,193.05c-8.18,0-14.71-.23-20.32-.47v-60.6c5.49-.11,16.23-.35,23.7-.35,19.73,0,32.81,8.41,32.81,29.66s-15.76,31.76-36.2,31.76Zm1.87-49.16c-2.22,0-5.02.12-7.12.35v35.85c1.4.23,4.09.35,6.77.35,10.86,0,18.69-6.19,18.69-18.45s-6.19-18.1-18.33-18.1Z"/>
    <path class="cls-1" d="m354.43,192.7v-60.72h37.37v11.8h-22.31v12.14h21.25v11.44h-21.25v13.31h22.31v12.03h-37.37Z"/>
    <path class="cls-1" d="m413.15,193.98c-3.85,0-8.53-.58-11.91-1.4l.58-13.31c3.5,1.4,8.06,2.22,12.84,2.22s9.22-2.34,9.22-6.89c0-9.23-24.41-4.09-24.41-23.94,0-11.91,8.99-19.85,25.69-19.85,3.27,0,7.71.47,11.09.93l-.47,12.61c-3.27-.93-7.71-1.52-11.21-1.52-6.42,0-9.11,2.45-9.11,6.19,0,8.64,24.87,5.02,24.87,23.71,0,12.73-10.28,21.25-27.21,21.25Z"/>
    <path class="cls-1" d="m450.28,192.7v-60.72h15.06v60.72h-15.06Z"/>
    <path class="cls-1" d="m509.48,192.7l-14.95-23.71h-.58v23.71h-15.06v-60.72c4.9-.23,14.13-.35,21.83-.35,14.95,0,23.82,5.72,23.82,17.52,0,9.34-5.96,15.18-14.71,17.28,1.17,1.63,2.8,4.09,4.56,6.66l13.43,19.62h-18.33Zm-10.98-49.63c-1.64,0-3.16.12-4.56.23v15.53c1.52.23,3.39.23,5.02.23,5.84,0,9.58-3.38,9.58-8.4s-3.85-7.59-10.04-7.59Z"/>
    <path class="cls-1" d="m535.27,192.7v-60.72h37.37v11.8h-22.31v12.14h21.25v11.44h-21.25v13.31h22.31v12.03h-37.37Z"/>
    <path class="cls-1" d="m594,193.98c-3.85,0-8.53-.58-11.91-1.4l.58-13.31c3.5,1.4,8.06,2.22,12.84,2.22s9.22-2.34,9.22-6.89c0-9.23-24.41-4.09-24.41-23.94,0-11.91,8.99-19.85,25.69-19.85,3.27,0,7.71.47,11.09.93l-.47,12.61c-3.27-.93-7.71-1.52-11.21-1.52-6.42,0-9.11,2.45-9.11,6.19,0,8.64,24.87,5.02,24.87,23.71,0,12.73-10.28,21.25-27.21,21.25Z"/>
  </g>
</svg>